<?xml version="1.0" encoding="utf-8"?>
<!-- Generator: Adobe Illustrator 25.2.0, SVG Export Plug-In . SVG Version: 6.00 Build 0)  -->
<svg version="1.1" id="Layer_1" xmlns="http://www.w3.org/2000/svg" xmlns:xlink="http://www.w3.org/1999/xlink" x="0px" y="0px"
	 viewBox="0 0 151.3 151.3" style="enable-background:new 0 0 151.3 151.3;" xml:space="preserve">
<style type="text/css">
	.st0{fill:#FFFFFF;}
</style>
<path class="st0" d="M104.8,64c0.1-22.6-18.2-41.1-40.8-41.2C41.3,22.7,22.9,41,22.8,63.6c-0.1,22.6,18.2,41.1,40.8,41.2
	c10.9,0,21.4-4.3,29.2-12C100.6,85.3,104.9,74.8,104.8,64z M151.3,139.7c0,6.4-5.2,11.6-11.6,11.6l0,0c-3.1,0.1-6.1-1.1-8.2-3.4
	l-31.2-31.1c-18,12.3-41,14.6-61.1,6.2c-7.7-3.2-14.6-7.8-20.5-13.7C6.8,97.2,0.1,81,0,64c0.1-16.9,6.8-33.2,18.7-45.3
	c5.9-5.8,12.8-10.5,20.5-13.6c15.9-6.8,33.8-6.8,49.7,0c15.5,6.3,27.8,18.6,34.1,34.1c8.4,20.1,6.1,43.1-6.2,61.1l31.2,31.2
	C150.2,133.7,151.4,136.6,151.3,139.7z"/>
</svg>
