<svg width="125" height="19" viewBox="0 0 125 19" fill="none" xmlns="http://www.w3.org/2000/svg">
<path d="M3.75586 15H0.0253906V5.06836H3.26758V7.11914C3.63867 5.62826 4.5013 4.88281 5.85547 4.88281C5.99219 4.88281 6.18099 4.89583 6.42188 4.92188V8.38867C6.14844 8.32357 5.9043 8.29102 5.68945 8.29102C4.40039 8.29102 3.75586 9.01042 3.75586 10.4492V15ZM14.2246 11.4355L17.8574 11.6797C17.6426 12.6562 17.0924 13.4896 16.207 14.1797C15.3281 14.8633 14.1367 15.2051 12.6328 15.2051C10.9596 15.2051 9.625 14.7233 8.62891 13.7598C7.63281 12.7897 7.13477 11.5885 7.13477 10.1562C7.13477 8.67188 7.6263 7.41862 8.60938 6.39648C9.59245 5.37435 10.9043 4.86328 12.5449 4.86328C14.1335 4.86328 15.416 5.34505 16.3926 6.30859C17.3757 7.27214 17.8672 8.58398 17.8672 10.2441C17.8672 10.3809 17.8639 10.5697 17.8574 10.8105H11.207C11.2201 11.4355 11.3307 11.901 11.5391 12.207C11.7474 12.5065 12.1445 12.6562 12.7305 12.6562C13.5768 12.6562 14.0749 12.2493 14.2246 11.4355ZM13.9707 8.85742C13.9642 8.18685 13.8275 7.73763 13.5605 7.50977C13.3001 7.27539 12.9746 7.1582 12.584 7.1582C11.6595 7.1582 11.1973 7.72461 11.1973 8.85742H13.9707ZM25.3867 10.9961L28.707 11.2793C28.5508 12.4382 28.0625 13.3822 27.2422 14.1113C26.4284 14.8405 25.3444 15.2051 23.9902 15.2051C22.4733 15.2051 21.2396 14.7298 20.2891 13.7793C19.3451 12.8223 18.873 11.5983 18.873 10.1074C18.873 8.58398 19.3418 7.33073 20.2793 6.34766C21.2233 5.35807 22.4473 4.86328 23.9512 4.86328C25.2858 4.86328 26.373 5.23763 27.2129 5.98633C28.0527 6.72852 28.5345 7.66927 28.6582 8.80859L25.25 9.0918C25.1068 8.04362 24.7096 7.51953 24.0586 7.51953C23.6419 7.51953 23.3359 7.71159 23.1406 8.0957C22.9518 8.47331 22.8574 9.13411 22.8574 10.0781C22.8574 10.8919 22.9518 11.4941 23.1406 11.8848C23.3359 12.2754 23.6712 12.4707 24.1465 12.4707C24.8431 12.4707 25.2565 11.9792 25.3867 10.9961ZM33.7656 1.25V4.33594H29.8691V1.25H33.7656ZM33.7656 5.06836V15H29.8691V5.06836H33.7656ZM39.7227 18.1348H35.8262V5.06836H39.4102V6.47461C39.9115 5.40039 40.8457 4.86328 42.2129 4.86328C43.3978 4.86328 44.3255 5.32552 44.9961 6.25C45.6667 7.16797 46.002 8.42122 46.002 10.0098C46.002 11.5983 45.6569 12.8613 44.9668 13.7988C44.2832 14.7363 43.3783 15.2051 42.252 15.2051C41.1452 15.2051 40.3021 14.7819 39.7227 13.9355V18.1348ZM39.7227 11.3672C39.7227 11.8099 39.8236 12.1549 40.0254 12.4023C40.2272 12.6432 40.4779 12.7637 40.7773 12.7637C41.2461 12.7637 41.5684 12.5488 41.7441 12.1191C41.9199 11.6829 42.0078 11.0156 42.0078 10.1172C42.0078 9.08203 41.9069 8.35612 41.7051 7.93945C41.5033 7.51628 41.2005 7.30469 40.7969 7.30469C40.556 7.30469 40.3151 7.39909 40.0742 7.58789C39.8398 7.77669 39.7227 8.08594 39.7227 8.51562V11.3672ZM54.127 11.4355L57.7598 11.6797C57.5449 12.6562 56.9948 13.4896 56.1094 14.1797C55.2305 14.8633 54.0391 15.2051 52.5352 15.2051C50.862 15.2051 49.5273 14.7233 48.5312 13.7598C47.5352 12.7897 47.0371 11.5885 47.0371 10.1562C47.0371 8.67188 47.5286 7.41862 48.5117 6.39648C49.4948 5.37435 50.8066 4.86328 52.4473 4.86328C54.0358 4.86328 55.3184 5.34505 56.2949 6.30859C57.278 7.27214 57.7695 8.58398 57.7695 10.2441C57.7695 10.3809 57.7663 10.5697 57.7598 10.8105H51.1094C51.1224 11.4355 51.2331 11.901 51.4414 12.207C51.6497 12.5065 52.0469 12.6562 52.6328 12.6562C53.4792 12.6562 53.9772 12.2493 54.127 11.4355ZM53.873 8.85742C53.8665 8.18685 53.7298 7.73763 53.4629 7.50977C53.2025 7.27539 52.877 7.1582 52.4863 7.1582C51.5618 7.1582 51.0996 7.72461 51.0996 8.85742H53.873ZM58.4238 12.1875L61.5 11.7676C61.6758 12.4837 62.3724 12.8418 63.5898 12.8418C64.599 12.8418 65.1035 12.6465 65.1035 12.2559C65.1035 12.0866 65.0059 11.9564 64.8105 11.8652C64.6152 11.7676 64.153 11.6699 63.4238 11.5723C61.4056 11.2923 60.1458 10.8561 59.6445 10.2637C59.1432 9.66471 58.8926 9.00065 58.8926 8.27148C58.8926 7.25586 59.3158 6.43555 60.1621 5.81055C61.0085 5.17904 62.1185 4.86328 63.4922 4.86328C65.901 4.86328 67.4375 5.73242 68.1016 7.4707L65.1523 8.02734C64.8789 7.44141 64.3027 7.14844 63.4238 7.14844C63.0072 7.14844 62.6947 7.20703 62.4863 7.32422C62.2845 7.4349 62.1836 7.54557 62.1836 7.65625C62.1836 7.98177 62.4961 8.18034 63.1211 8.25195C64.7487 8.43424 65.8522 8.61979 66.4316 8.80859C67.0111 8.9974 67.5059 9.34245 67.916 9.84375C68.3262 10.3451 68.5312 10.9505 68.5312 11.6602C68.5312 12.7474 68.0755 13.61 67.1641 14.248C66.2591 14.8861 65.0091 15.2051 63.4141 15.2051C60.7253 15.2051 59.0618 14.1992 58.4238 12.1875ZM74.1074 7.59766V15H70.4355V7.59766H68.9512V5.06836H70.4355C70.4355 4.24805 70.4714 3.64258 70.543 3.25195C70.6146 2.85482 70.7936 2.47721 71.0801 2.11914C71.3665 1.75456 71.7507 1.47786 72.2324 1.28906C72.7142 1.09375 73.362 0.996094 74.1758 0.996094C75.0482 0.996094 75.8848 1.06445 76.6855 1.20117V3.75C76.0671 3.66536 75.6048 3.62305 75.2988 3.62305C74.9928 3.62305 74.7129 3.6849 74.459 3.80859C74.2051 3.93229 74.0781 4.23503 74.0781 4.7168V5.06836H76.6172V7.59766H74.1074ZM82.6133 15.2051C80.9661 15.2051 79.6576 14.694 78.6875 13.6719C77.7174 12.6432 77.2324 11.4388 77.2324 10.0586C77.2324 8.57422 77.737 7.33724 78.7461 6.34766C79.7617 5.35807 81.0801 4.86328 82.7012 4.86328C84.3353 4.86328 85.6471 5.35156 86.6367 6.32812C87.6328 7.30469 88.1309 8.52865 88.1309 10C88.1309 11.4844 87.6263 12.7246 86.6172 13.7207C85.6146 14.7103 84.2799 15.2051 82.6133 15.2051ZM82.6719 12.8418C83.2773 12.8418 83.6452 12.5293 83.7754 11.9043C83.9121 11.2728 83.9805 10.6152 83.9805 9.93164C83.9805 9.00065 83.8861 8.33008 83.6973 7.91992C83.5085 7.50977 83.1699 7.30469 82.6816 7.30469C82.2324 7.30469 81.9036 7.51628 81.6953 7.93945C81.487 8.36263 81.3828 9.05924 81.3828 10.0293C81.3828 11.1686 81.4902 11.9238 81.7051 12.2949C81.9199 12.6595 82.2422 12.8418 82.6719 12.8418ZM93.3848 15H89.6543V5.06836H92.8965V7.11914C93.2676 5.62826 94.1302 4.88281 95.4844 4.88281C95.6211 4.88281 95.8099 4.89583 96.0508 4.92188V8.38867C95.7773 8.32357 95.5332 8.29102 95.3184 8.29102C94.0293 8.29102 93.3848 9.01042 93.3848 10.4492V15ZM112.34 15H108.561V8.78906C108.561 8.3724 108.499 8.08268 108.375 7.91992C108.258 7.75065 108.046 7.66602 107.74 7.66602C107.011 7.66602 106.646 8.19661 106.646 9.25781V15H102.906V8.78906C102.906 7.99479 102.6 7.59766 101.988 7.59766C101.357 7.59766 101.041 7.99479 101.041 8.78906V15H97.291V5.06836H100.787V6.40625C101.412 5.3776 102.32 4.86328 103.512 4.86328C104.794 4.86328 105.725 5.3776 106.305 6.40625C106.949 5.3776 107.939 4.86328 109.273 4.86328C109.911 4.86328 110.471 4.99674 110.953 5.26367C111.441 5.5306 111.793 5.87565 112.008 6.29883C112.229 6.71549 112.34 7.36328 112.34 8.24219V15ZM120.963 11.4355L124.596 11.6797C124.381 12.6562 123.831 13.4896 122.945 14.1797C122.066 14.8633 120.875 15.2051 119.371 15.2051C117.698 15.2051 116.363 14.7233 115.367 13.7598C114.371 12.7897 113.873 11.5885 113.873 10.1562C113.873 8.67188 114.365 7.41862 115.348 6.39648C116.331 5.37435 117.643 4.86328 119.283 4.86328C120.872 4.86328 122.154 5.34505 123.131 6.30859C124.114 7.27214 124.605 8.58398 124.605 10.2441C124.605 10.3809 124.602 10.5697 124.596 10.8105H117.945C117.958 11.4355 118.069 11.901 118.277 12.207C118.486 12.5065 118.883 12.6562 119.469 12.6562C120.315 12.6562 120.813 12.2493 120.963 11.4355ZM120.709 8.85742C120.702 8.18685 120.566 7.73763 120.299 7.50977C120.038 7.27539 119.713 7.1582 119.322 7.1582C118.398 7.1582 117.936 7.72461 117.936 8.85742H120.709Z" fill="#C51D1D"/>
</svg>
